<?xml version="1.0" encoding="UTF-8"?>
<svg xmlns="http://www.w3.org/2000/svg" xmlns:xlink="http://www.w3.org/1999/xlink" width="30px" height="30px" viewBox="0 0 30 30" version="1.1">
<g id="surface1">
<path style=" stroke:none;fill-rule:nonzero;fill:rgb(0%,0%,0%);fill-opacity:1;" d="M 14.574219 1.28125 C 14.5 1.289062 14.433594 1.320312 14.382812 1.371094 L 9.246094 6.507812 C 9.183594 6.570312 9.148438 6.652344 9.148438 6.742188 C 9.148438 6.828125 9.183594 6.910156 9.246094 6.972656 C 9.308594 7.03125 9.390625 7.066406 9.476562 7.066406 C 9.5625 7.066406 9.644531 7.03125 9.707031 6.972656 L 14.613281 2.066406 L 19.519531 6.972656 C 19.582031 7.03125 19.664062 7.066406 19.75 7.066406 C 19.835938 7.066406 19.921875 7.03125 19.980469 6.972656 C 20.042969 6.910156 20.078125 6.828125 20.078125 6.742188 C 20.078125 6.652344 20.042969 6.570312 19.980469 6.507812 L 14.84375 1.371094 C 14.773438 1.300781 14.671875 1.269531 14.574219 1.28125 Z M 14.574219 1.28125 "/>
<path style=" stroke:none;fill-rule:nonzero;fill:rgb(0%,0%,0%);fill-opacity:1;" d="M 14.542969 1.734375 C 14.394531 1.765625 14.289062 1.902344 14.292969 2.054688 L 14.292969 15.410156 C 14.289062 15.496094 14.324219 15.578125 14.382812 15.640625 C 14.445312 15.699219 14.527344 15.734375 14.613281 15.734375 C 14.699219 15.734375 14.78125 15.699219 14.84375 15.640625 C 14.902344 15.578125 14.933594 15.496094 14.933594 15.410156 L 14.933594 2.054688 C 14.9375 1.957031 14.894531 1.863281 14.816406 1.800781 C 14.742188 1.734375 14.640625 1.710938 14.542969 1.734375 Z M 14.542969 1.734375 "/>
<path style=" stroke:none;fill-rule:nonzero;fill:rgb(0%,0%,0%);fill-opacity:1;" d="M 7.550781 11.554688 C 6.667969 11.554688 5.945312 12.277344 5.945312 13.160156 L 5.945312 27.289062 C 5.945312 28.171875 6.667969 28.894531 7.550781 28.894531 L 19.75 28.894531 C 19.835938 28.894531 19.917969 28.863281 19.980469 28.800781 C 20.042969 28.742188 20.074219 28.660156 20.074219 28.574219 C 20.074219 28.488281 20.042969 28.40625 19.980469 28.34375 C 19.917969 28.285156 19.835938 28.25 19.75 28.25 L 7.550781 28.25 C 7.011719 28.25 6.585938 27.828125 6.585938 27.289062 L 6.585938 13.160156 C 6.585938 12.621094 7.011719 12.199219 7.550781 12.199219 L 11.082031 12.199219 C 11.167969 12.199219 11.25 12.167969 11.3125 12.105469 C 11.371094 12.046875 11.40625 11.964844 11.40625 11.878906 C 11.40625 11.792969 11.371094 11.710938 11.3125 11.648438 C 11.25 11.589844 11.167969 11.554688 11.082031 11.554688 Z M 18.113281 11.554688 C 17.9375 11.566406 17.800781 11.714844 17.808594 11.890625 C 17.816406 12.070312 17.96875 12.207031 18.144531 12.199219 L 21.675781 12.199219 C 22.214844 12.199219 22.640625 12.621094 22.640625 13.160156 L 22.640625 27.289062 C 22.640625 27.828125 22.214844 28.25 21.675781 28.25 C 21.589844 28.25 21.507812 28.285156 21.445312 28.34375 C 21.386719 28.40625 21.351562 28.488281 21.351562 28.574219 C 21.351562 28.660156 21.386719 28.742188 21.445312 28.800781 C 21.507812 28.863281 21.589844 28.894531 21.675781 28.894531 C 22.558594 28.894531 23.28125 28.171875 23.28125 27.289062 L 23.28125 13.160156 C 23.28125 12.277344 22.558594 11.554688 21.675781 11.554688 L 18.144531 11.554688 C 18.136719 11.554688 18.125 11.554688 18.113281 11.554688 Z M 18.113281 11.554688 "/>
</g>
</svg>
